<svg xmlns="http://www.w3.org/2000/svg" viewBox="0 0 96 96" role="img" aria-labelledby="title">
  <title>FunService logo</title>
  <defs>
    <linearGradient id="markGradient" x1="20" y1="16" x2="78" y2="84" gradientUnits="userSpaceOnUse">
      <stop offset="0" stop-color="#15b981" />
      <stop offset="1" stop-color="#92b81e" />
    </linearGradient>
  </defs>
  <rect width="96" height="96" rx="24" fill="#0d1b15" />
  <path d="M19 46 48 22l29 24v31c0 3.3-2.7 6-6 6H25c-3.3 0-6-2.7-6-6V46Z" fill="url(#markGradient)" />
  <path d="M33 40h30c2.2 0 4 1.8 4 4v30H29V44c0-2.2 1.8-4 4-4Z" fill="#f8fbf6" opacity=".95" />
  <path d="M39 83V56c0-2.8 2.2-5 5-5h8c2.8 0 5 2.2 5 5v27H39Z" fill="#0d1b15" />
  <circle cx="52" cy="66" r="2.2" fill="#92b81e" />
  <path d="M67 22 77 12M74 34h14M61 13l2-11" fill="none" stroke="#92b81e" stroke-width="5" stroke-linecap="round" />
</svg>
